<?xml version="1.0" encoding="UTF-8"?><svg width="512pt" height="512pt" viewBox="-27 0 512 512" xmlns="http://www.w3.org/2000/svg"><path d="m0 0 44.266 461.5 186.48 50.5 183.84-50.5 44.266-461.5z" fill="#fd982c"/><path d="m230.75 0v512l183.84-50.5 44.266-461.5z" fill="#fa502e"/><path d="m367.17 159.38-195.86-0.003906 3.2773 35.828h191.65l-15.488 200.19-120.17 34.953-128.98-40.117v-81.184h80.125v24.18l48.875 15.102 46.309-15.113 3.3711-59.941h-177.44l-20.031-190.96h284.36z" fill="#fff"/><g fill="#deecf1"><path d="m230.75 82.309h136.43v77.07h-136.43z"/><path d="m280.28 273.27-3.3711 59.941-46.16 15.066v82.02l120.01-34.906 15.488-200.19h-135.5v78.07z"/></g></svg>